<?xml version="1.0" encoding="UTF-8"?>
<svg xmlns="http://www.w3.org/2000/svg" viewBox="0 0 877.85 383.49">
  <g id="Layer_1" data-name="Layer 1">
    <path d="M88.91,322.91c-1.33.62-2.49,1.43-3.48,2.43s-1.78,2.15-2.34,3.44c-.57,1.29-.85,2.65-.85,4.08v18.76c0,2.87,1.09,5.4,3.27,7.59,2.18,2.2,4.69,3.29,7.53,3.29h8.81c1.42,0,2.77-.29,4.05-.86,1.28-.57,2.42-1.36,3.41-2.35.99-1,1.8-2.16,2.42-3.5.61-1.33.92-2.71.92-4.14h24.04c0,4.38-.76,8.49-2.26,12.35-1.51,3.85-3.75,7.23-6.72,10.13-2.97,2.9-6.6,5.19-10.89,6.85-4.29,1.66-9.26,2.5-14.92,2.5h-8.77c-5.66,0-10.63-.83-14.92-2.5-4.29-1.66-7.92-3.95-10.89-6.85-2.97-2.9-5.21-6.28-6.72-10.13-1.51-3.85-2.26-7.97-2.26-12.35v-20.41h.14c.19-4.19,1.08-8.09,2.69-11.7,1.6-3.61,3.87-6.78,6.79-9.49,2.92-2.71,6.51-4.85,10.75-6.42,4.24-1.57,9.05-2.36,14.43-2.36h8.77c5.66,0,10.63.83,14.92,2.5,4.29,1.67,7.92,3.92,10.89,6.78,2.97,2.85,5.21,6.21,6.72,10.06,1.51,3.85,2.26,7.97,2.26,12.35h-24.04c0-1.45-.31-2.82-.92-4.12-.62-1.3-1.42-2.46-2.42-3.47-1-1.01-2.13-1.83-3.41-2.46-1.28-.63-2.63-.94-4.05-.94h-8.81c-1.42,0-2.8.31-4.12.93Z"/>
    <path d="M224.24,353.37c-.19,4.19-1.08,8.11-2.68,11.77-1.6,3.66-3.88,6.85-6.85,9.56-2.97,2.71-6.54,4.85-10.73,6.42-4.19,1.57-9.01,2.35-14.47,2.35h-8.61c-5.65,0-10.64-.83-14.97-2.5-4.33-1.66-7.98-3.95-10.94-6.85-2.97-2.9-5.2-6.28-6.71-10.13-1.51-3.85-2.26-7.97-2.26-12.35v-20.41h.14c.19-4.19,1.08-8.09,2.68-11.7,1.6-3.61,3.86-6.78,6.78-9.49,2.92-2.71,6.5-4.85,10.73-6.42,4.23-1.57,9.08-2.36,14.54-2.36h8.61c5.65,0,10.61.83,14.9,2.5,4.28,1.67,7.91,3.92,10.87,6.78s5.2,6.21,6.71,10.06c1.51,3.85,2.26,7.97,2.26,12.35l.14,20.41h-.14ZM189.53,362.51c1.42,0,2.8-.29,4.12-.86,1.33-.57,2.49-1.36,3.48-2.35,1-1,1.8-2.16,2.42-3.5.61-1.33.92-2.71.92-4.14v-18.69c0-1.43-.31-2.78-.92-4.07-.62-1.28-1.42-2.43-2.42-3.42-.99-1-2.15-1.78-3.48-2.36-1.33-.57-2.7-.86-4.12-.86h-8.67c-2.94,0-5.49,1.07-7.67,3.21-2.18,2.14-3.27,4.64-3.27,7.49v18.69c0,1.43.31,2.81.92,4.14.61,1.33,1.42,2.5,2.42,3.5.99,1,2.15,1.78,3.48,2.35,1.33.57,2.7.86,4.12.86h8.67Z"/>
    <path d="M258.7,381.92h-24.05v-109.75h24.05v109.75Z"/>
    <path d="M304.41,381.85h-24.05v-106.41h24.05v106.41Z"/>
    <path d="M391.63,333.97v15.41l-54.31.14v2.17c0,2.89,1.08,5.18,3.25,6.86,2.17,1.69,4.71,2.53,7.64,2.53h30.83v20.69h-30.83c-5.66,0-10.62-.76-14.89-2.28-4.27-1.52-7.88-3.61-10.83-6.28-2.95-2.66-5.18-5.83-6.68-9.49-1.5-3.66-2.25-7.68-2.25-12.06l-.14-20.41h.14c.19-4.19,1.08-8.09,2.67-11.7,1.59-3.61,3.87-6.78,6.82-9.49,2.95-2.71,6.52-4.85,10.69-6.42,4.18-1.57,9-2.36,14.47-2.36h8.63c5.37,0,10.18.81,14.43,2.43,4.24,1.62,7.83,3.83,10.75,6.64,2.92,2.81,5.21,6.07,6.86,9.78,1.65,3.71,2.57,7.66,2.76,11.84v2ZM367.44,331.97c-.47-2.6-1.72-4.92-3.75-6.95-2.03-2.03-4.31-3.04-6.86-3.04h-8.63c-2.74,0-5.14.99-7.21,2.97-2.08,1.98-3.25,4.32-3.54,7.02h29.99Z"/>
    <path d="M431.97,322.91c-1.33.62-2.49,1.43-3.48,2.43s-1.78,2.15-2.34,3.44c-.57,1.29-.85,2.65-.85,4.08v18.76c0,2.87,1.09,5.4,3.27,7.59,2.18,2.2,4.69,3.29,7.53,3.29h8.81c1.42,0,2.77-.29,4.05-.86,1.28-.57,2.42-1.36,3.41-2.35.99-1,1.8-2.16,2.41-3.5.62-1.33.93-2.71.93-4.14h24.04c0,4.38-.76,8.49-2.26,12.35-1.51,3.85-3.75,7.23-6.72,10.13-2.97,2.9-6.6,5.19-10.89,6.85-4.29,1.66-9.27,2.5-14.92,2.5h-8.77c-5.66,0-10.63-.83-14.92-2.5-4.29-1.66-7.92-3.95-10.89-6.85-2.97-2.9-5.21-6.28-6.72-10.13-1.51-3.85-2.26-7.97-2.26-12.35v-20.41h.14c.19-4.19,1.08-8.09,2.69-11.7,1.6-3.61,3.87-6.78,6.79-9.49,2.92-2.71,6.51-4.85,10.75-6.42,4.24-1.57,9.05-2.36,14.43-2.36h8.77c5.66,0,10.63.83,14.92,2.5,4.29,1.67,7.92,3.92,10.89,6.78,2.97,2.85,5.21,6.21,6.72,10.06,1.51,3.85,2.26,7.97,2.26,12.35h-24.04c0-1.45-.31-2.82-.93-4.12-.62-1.3-1.42-2.46-2.41-3.47-1-1.01-2.13-1.83-3.41-2.46-1.28-.63-2.63-.94-4.05-.94h-8.81c-1.42,0-2.8.31-4.12.93Z"/>
    <path d="M519.14,355.8c.61,1.33,1.41,2.5,2.4,3.5.99,1,2.14,1.78,3.46,2.35,1.32.57,2.69.86,4.1.86l13.72.28v20.69h-13.72c-5.47,0-10.33-.78-14.57-2.35-4.24-1.57-7.85-3.71-10.82-6.42-2.97-2.71-5.26-5.9-6.86-9.56-1.6-3.66-2.5-7.59-2.69-11.77l.14-68.36h23.9v25.55h15.98v20.98h-15.98v20.12c0,1.43.31,2.81.92,4.14Z"/>
    <path d="M568.29,300.28c-3.49,0-6.15-.95-7.99-2.85-1.84-1.9-2.76-4.23-2.76-6.99v-6.28c.19-2.57,1.18-4.76,2.97-6.56,1.79-1.81,4.38-2.71,7.78-2.71h2.69c3.49,0,6.15.95,7.99,2.85,1.84,1.9,2.76,4.23,2.76,6.99v6.28c-.19,2.57-1.2,4.76-3.04,6.57-1.84,1.81-4.41,2.71-7.71,2.71h-2.69ZM557.54,302.57h24.19v79.35h-24.19v-79.35Z"/>
    <path d="M679.74,302.57l-30.27,79.35h-24.05l-30.13-79.35h23.9l18.24,47.81,18.25-47.81h24.05Z"/>
    <path d="M766.3,333.97v15.41l-54.31.14v2.17c0,2.89,1.08,5.18,3.25,6.86,2.17,1.69,4.71,2.53,7.64,2.53h30.83v20.69h-30.83c-5.66,0-10.62-.76-14.89-2.28-4.27-1.52-7.88-3.61-10.83-6.28-2.95-2.66-5.18-5.83-6.68-9.49-1.5-3.66-2.25-7.68-2.25-12.06l-.14-20.41h.14c.19-4.19,1.08-8.09,2.67-11.7,1.59-3.61,3.87-6.78,6.82-9.49,2.95-2.71,6.52-4.85,10.7-6.42,4.18-1.57,9-2.36,14.47-2.36h8.63c5.38,0,10.18.81,14.43,2.43,4.24,1.62,7.83,3.83,10.75,6.64,2.92,2.81,5.21,6.07,6.86,9.78,1.65,3.71,2.57,7.66,2.76,11.84v2ZM742.12,331.97c-.47-2.6-1.72-4.92-3.75-6.95-2.03-2.03-4.31-3.04-6.86-3.04h-8.63c-2.74,0-5.14.99-7.21,2.97-2.08,1.98-3.25,4.32-3.54,7.02h29.99Z"/>
    <path d="M776.99,383.49c-3.49,0-6.15-.95-7.99-2.85-1.84-1.9-2.76-4.23-2.76-6.99v-6.28c.19-2.57,1.18-4.76,2.97-6.56,1.79-1.81,4.38-2.71,7.78-2.71h2.69c3.49,0,6.15.95,7.99,2.85,1.84,1.9,2.76,4.23,2.76,6.99v6.28c-.19,2.57-1.2,4.76-3.04,6.57-1.84,1.81-4.41,2.71-7.71,2.71h-2.69Z"/>
  </g>
  <g id="Layer_2" data-name="Layer 2">
    <g>
      <path d="M136.68,161.27l8.19,114.17h-54.51l-3.72-103.22h-4.12l-31.37,209.23-49.64.78L60.55,0h68.96c29.61,0,49.86,24.26,45.22,54.16l-9.92,63.9c-2.74,17.66-13.58,33.36-28.13,43.21ZM90.3,122.7h12.3c6.8,0,13.16-5.53,14.24-12.38l7.58-48.42c1.07-6.85-3.55-12.38-10.34-12.38h-12.27l-11.5,73.18Z"/>
      <polygon points="221.75 112.99 275.15 112.99 267.61 162.48 214.14 162.48 204.38 225.95 266 225.95 258.47 275.47 147.38 275.47 190.09 0 300.39 0 292.85 49.52 231.51 49.52 221.75 112.99"/>
      <polygon points="379.06 0 430.21 0 373.78 275.44 280.42 275.44 306.85 0 358.11 0 332.3 225.95 336.75 225.95 379.06 0"/>
      <polygon points="396.43 275.46 437.37 0 486.4 0 453.11 225.94 514.76 225.94 507.54 275.46 396.43 275.46"/>
      <polygon points="555.27 0 604.31 0 564.56 275.46 515.17 275.46 555.27 0"/>
      <polygon points="657.81 275.47 641.67 162.48 637.3 162.48 621.16 275.47 571.78 275.47 611.48 0 660.51 0 676.51 112.96 680.87 112.96 696.9 0 745.93 0 707.2 275.47 657.81 275.47"/>
      <polygon points="785.81 112.99 839.21 112.99 832.39 162.48 778.92 162.48 770.09 225.95 831.71 225.95 824.9 275.47 713.81 275.47 752.5 0 929.78 0 923.05 49.52 794.64 49.52 785.81 112.99"/>
    </g>
  </g>
</svg>